<?xml version="1.0" encoding="utf-8" ?>
<svg xmlns="http://www.w3.org/2000/svg" xmlns:xlink="http://www.w3.org/1999/xlink" width="768" height="384">
	<path transform="scale(0.75 0.75)" d="M503.691 175.003C559.499 174.012 613.6 193.802 651.995 235.451C657.11 241 677.798 265.825 677.559 271.752C662.636 274.458 630.995 277.711 616.672 277.768C615.508 275.867 596.779 260.255 594.175 258.924C593.653 261.022 571.815 280.112 568.73 281.782C568.484 280.047 519.688 228.584 514.956 225.738C514.522 224.337 512.824 223.134 511.745 222.16C493.838 242.301 474.384 261.367 455.412 280.514C446.194 273.805 438.086 265.023 428.473 258.924C420.162 264.005 413.499 271.909 405.691 277.768C384.693 277.496 363.741 274.409 342.726 273.913C347.28 264.758 353.674 256.096 360.289 248.312C398.914 202.864 445.251 179.745 503.691 175.003Z"/>
	<path transform="scale(0.75 0.75)" d="M878.682 269.359C901.06 269.743 923.425 268.513 945.674 271.752C939.235 273.064 932.56 273.781 926.063 274.874L726.255 311.826C679.056 320.824 630.048 333.346 583.194 341.134C588.367 339.045 607.934 326.8 610.002 322.474C606.608 326.255 586.961 334.634 580.894 338.051C550.962 354.908 524.048 375.296 492.094 388.48C457.193 401.672 428.912 401.475 393.31 393.428C456.521 391.284 492.583 361.361 542.639 326.558C597.091 288.699 620.048 288.646 683.959 283.077C724.078 279.582 764.26 276.24 804.456 273.762L850.124 270.972C859.651 270.466 869.192 270.415 878.682 269.359Z"/>
	<path transform="scale(0.75 0.75)" d="M112.137 269.359C132.546 267.752 155.633 270.149 175.986 271.612L341.25 283.996C391.697 287.48 442.043 290.61 492.094 298.122C478.556 303.884 456.636 314.917 444.3 322.474C434.759 326.193 425.77 331.404 416.53 335.803C410.698 335.282 404.726 333.754 398.984 332.595L134.998 281.604C116.394 278.189 97.4502 275.732 78.9855 271.752C89.7066 269.845 101.259 269.555 112.137 269.359Z"/>
	<path transform="scale(0.75 0.75)" d="M677.559 105.249C679.606 105.244 738.726 126.266 742.69 128.492C759.092 123.774 779.65 104.776 800.836 108.114C802.214 108.331 803.069 109.036 802.704 110.449C800.226 120.043 762.957 140.798 753.003 146.264C754.833 150.027 741.044 215.826 740.237 216.786C737.197 219.716 731.763 222.562 727.778 223.903C729.496 220.878 726.485 164.945 723.542 160.264C721.817 162.041 717.464 163.404 715.077 164.088C713.346 165.823 700.152 171.346 696.802 172.995C696.673 176.094 684.196 208.125 681.759 210.635C679.389 212.777 675.666 214.105 672.68 215.154C674.782 211.462 675.428 184.137 673.99 180.281C670.765 181.845 661.025 185.915 659.591 180.742C663.37 177.642 668.586 176.309 672.413 173.216L672.68 172.995C672.156 172.183 642.583 147.739 640.373 146.264C643.107 145.237 647.766 142.76 649.635 140.534C654.601 142.046 686.181 155.435 688.755 158.274C690.248 157.857 713.823 145.185 715.077 144.148C710.364 140.117 703.494 137.012 698.076 133.798L674.96 120.202C670.993 117.909 666.947 115.231 662.721 113.485C667.579 111.833 672.976 107.735 677.559 105.249Z"/>
	<path transform="scale(0.75 0.75)" d="M590.148 282.749C590.645 282.732 591.254 282.639 591.737 282.731L591.641 283.293C524.511 306.415 465.618 371.695 395.964 381.186C342.57 388.461 308.584 360.626 268.856 330.422C265.413 327.875 261.991 325.361 258.82 322.474C288.361 338.788 316.32 361.483 350.649 366.73C406.373 375.247 499.83 304.898 564.224 288.343C572.772 286.145 581.663 285.136 590.148 282.749Z"/>
	<defs>
		<linearGradient id="gradient_0" gradientUnits="userSpaceOnUse" x1="376.72809" y1="238.82553" x2="376.27094" y2="156.99849">
			<stop offset="0" stop-color="#6E2B64"/>
			<stop offset="1" stop-color="#FFCEAA"/>
		</linearGradient>
	</defs>
	<path fill="url(#gradient_0)" transform="scale(0.75 0.75)" d="M367.886 158.274C378.557 154.954 391.865 154.679 402.524 158.274C412.213 162.864 420.44 167.833 428.473 175.003C413.82 183.952 401.774 189.348 386.971 199.822C383.483 203.733 377.412 207.411 373.345 211.081C363.411 220.046 354.357 229.627 345.644 239.775C341.268 231.519 334.839 226.423 325.854 223.903C325.38 214.883 326.259 206.197 328.506 197.441C334.926 178.806 348.52 163.92 367.886 158.274Z"/>
	<path fill="#FCD3AA" transform="scale(0.75 0.75)" d="M367.886 158.274C378.557 154.954 391.865 154.679 402.524 158.274C394.17 161.756 384.931 156.564 376.596 157.335C373.619 157.611 370.908 159.01 367.886 158.274Z"/>
	<path fill="#0C305B" transform="scale(0.75 0.75)" d="M294.911 232.76C311.79 230.982 326.529 238.708 337.131 251.687C332.998 258.081 328.403 264.534 325.854 271.752C316.253 272.251 306.757 271.424 297.228 270.356C282.356 270.476 267.455 268.862 252.572 268.56C258.708 248.641 273.631 234.998 294.911 232.76Z"/>
</svg>
